<svg width="38" height="38" viewBox="0 0 38 38" fill="none" xmlns="http://www.w3.org/2000/svg">
<path d="M19 5.9375C18.2126 5.9375 17.4575 6.25028 16.9008 6.80703C16.344 7.36378 16.0312 8.11889 16.0312 8.90625C16.0312 9.69361 16.344 10.4487 16.9008 11.0055C17.4575 11.5622 18.2126 11.875 19 11.875C19.7874 11.875 20.5425 11.5622 21.0992 11.0055C21.656 10.4487 21.9688 9.69361 21.9688 8.90625C21.9688 8.11889 21.656 7.36378 21.0992 6.80703C20.5425 6.25028 19.7874 5.9375 19 5.9375ZM13.6562 8.90625C13.6562 7.489 14.2193 6.1298 15.2214 5.12765C16.2235 4.1255 17.5827 3.5625 19 3.5625C20.4172 3.5625 21.7765 4.1255 22.7786 5.12765C23.7807 6.1298 24.3438 7.489 24.3438 8.90625C24.3438 10.3235 23.7807 11.6827 22.7786 12.6849C21.7765 13.687 20.4172 14.25 19 14.25C17.5827 14.25 16.2235 13.687 15.2214 12.6849C14.2193 11.6827 13.6562 10.3235 13.6562 8.90625ZM7.125 9.5C6.49511 9.5 5.89102 9.75022 5.44562 10.1956C5.00022 10.641 4.75 11.2451 4.75 11.875C4.75 12.5049 5.00022 13.109 5.44562 13.5544C5.89102 13.9998 6.49511 14.25 7.125 14.25C7.75489 14.25 8.35898 13.9998 8.80438 13.5544C9.24978 13.109 9.5 12.5049 9.5 11.875C9.5 11.2451 9.24978 10.641 8.80438 10.1956C8.35898 9.75022 7.75489 9.5 7.125 9.5ZM2.375 11.875C2.375 10.6152 2.87545 9.40704 3.76624 8.51624C4.65704 7.62544 5.86522 7.125 7.125 7.125C8.38478 7.125 9.59296 7.62544 10.4838 8.51624C11.3746 9.40704 11.875 10.6152 11.875 11.875C11.875 13.1348 11.3746 14.343 10.4838 15.2338C9.59296 16.1246 8.38478 16.625 7.125 16.625C5.86522 16.625 4.65704 16.1246 3.76624 15.2338C2.87545 14.343 2.375 13.1348 2.375 11.875ZM28.5 11.875C28.5 11.2451 28.7502 10.641 29.1956 10.1956C29.641 9.75022 30.2451 9.5 30.875 9.5C31.5049 9.5 32.109 9.75022 32.5544 10.1956C32.9998 10.641 33.25 11.2451 33.25 11.875C33.25 12.5049 32.9998 13.109 32.5544 13.5544C32.109 13.9998 31.5049 14.25 30.875 14.25C30.2451 14.25 29.641 13.9998 29.1956 13.5544C28.7502 13.109 28.5 12.5049 28.5 11.875ZM30.875 7.125C29.6152 7.125 28.407 7.62544 27.5162 8.51624C26.6254 9.40704 26.125 10.6152 26.125 11.875C26.125 13.1348 26.6254 14.343 27.5162 15.2338C28.407 16.1246 29.6152 16.625 30.875 16.625C32.1348 16.625 33.343 16.1246 34.2338 15.2338C35.1246 14.343 35.625 13.1348 35.625 11.875C35.625 10.6152 35.1246 9.40704 34.2338 8.51624C33.343 7.62544 32.1348 7.125 30.875 7.125ZM10.0938 19.5938C10.0938 19.3293 10.1147 19.0716 10.1567 18.8207L4.57544 20.3158C3.81504 20.5197 3.1668 21.0174 2.77329 21.6993C2.37979 22.3812 2.27326 23.1914 2.47712 23.9519L3.553 27.9656C3.81269 28.9354 4.2744 29.8394 4.90786 30.6182C5.54132 31.3971 6.33223 32.0333 7.22875 32.4852C8.12527 32.937 9.10716 33.1943 10.1101 33.2402C11.113 33.286 12.1142 33.1194 13.0483 32.7512C12.4063 32.175 11.8515 31.5086 11.4012 30.7729C10.2137 31.0195 8.97677 30.8025 7.9441 30.1664C6.91143 29.5303 6.16121 28.5232 5.84725 27.3517L4.77138 23.3379C4.75107 23.2626 4.74581 23.184 4.75589 23.1067C4.76597 23.0293 4.7912 22.9547 4.83013 22.8871C4.86906 22.8195 4.92093 22.7602 4.98277 22.7127C5.04462 22.6651 5.11523 22.6302 5.19056 22.61L10.0938 21.2966V19.5938ZM25.7177 33.0042C25.4574 32.9348 25.2013 32.8508 24.9506 32.7524C25.5929 32.1763 26.1481 31.5099 26.5988 30.7741C27.7862 31.02 29.0226 30.8025 30.0548 30.1662C31.0869 29.5299 31.8367 28.5229 32.1504 27.3517L33.2251 23.3368C33.2657 23.1848 33.2444 23.0229 33.1658 22.8867C33.0872 22.7504 32.9578 22.6509 32.8059 22.61L27.9062 21.2966V19.5938C27.9062 19.3309 27.8853 19.0736 27.8433 18.8219L33.421 20.3158C34.1814 20.5197 34.8296 21.0174 35.2231 21.6993C35.6166 22.3812 35.7232 23.1914 35.5193 23.9519L34.4434 27.9656C33.9544 29.7909 32.7604 31.3471 31.124 32.292C29.4877 33.2369 27.5429 33.4931 25.7177 33.0042ZM14.8438 16.625C14.0564 16.625 13.3013 16.9378 12.7445 17.4945C12.1878 18.0513 11.875 18.8064 11.875 19.5938V26.125C11.875 28.0147 12.6257 29.8269 13.9619 31.1631C15.2981 32.4993 17.1103 33.25 19 33.25C20.8897 33.25 22.7019 32.4993 24.0381 31.1631C25.3743 29.8269 26.125 28.0147 26.125 26.125V19.5938C26.125 18.8064 25.8122 18.0513 25.2555 17.4945C24.6987 16.9378 23.9436 16.625 23.1562 16.625H14.8438ZM14.25 19.5938C14.25 19.4363 14.3126 19.2853 14.4239 19.1739C14.5353 19.0626 14.6863 19 14.8438 19H23.1562C23.3137 19 23.4647 19.0626 23.5761 19.1739C23.6874 19.2853 23.75 19.4363 23.75 19.5938V26.125C23.75 27.3848 23.2496 28.593 22.3588 29.4838C21.468 30.3746 20.2598 30.875 19 30.875C17.7402 30.875 16.532 30.3746 15.6412 29.4838C14.7504 28.593 14.25 27.3848 14.25 26.125V19.5938Z" fill="#31C1E1"/>
</svg>
