<svg width="38" height="38" viewBox="0 0 38 38" fill="none" xmlns="http://www.w3.org/2000/svg">
<path fill-rule="evenodd" clip-rule="evenodd" d="M30.6612 26.3725C32.7477 18.7955 27.8073 10.9695 19.6912 8.85352C10.5259 6.46139 -2.48262 12.6732 0.411268 20.6411C1.37057 23.2764 3.21722 23.8929 6.70069 23.9415L6.91853 23.9454C8.75919 23.9668 9.27681 24.0835 9.4327 24.3285C9.68651 24.733 9.69051 25.3768 9.40472 27.1485C9.26882 27.9848 9.22485 28.2765 9.17289 28.7335C8.85512 31.5166 9.33877 33.687 11.2114 35.6513C17.0631 41.7833 28.305 34.9259 30.6612 26.3725ZM4.18052 19.3459C2.72358 15.3356 12.0468 10.8859 18.656 12.609C24.6856 14.1824 28.301 19.9099 26.8001 25.3651C25.1253 31.4485 17.243 36.2561 14.1413 33.0044C13.182 32.0009 12.9441 30.9273 13.146 29.1634C13.188 28.7861 13.2279 28.5254 13.3538 27.7514C13.7915 25.0345 13.7855 23.7937 12.8382 22.2942C11.6511 20.4136 10.2401 20.0966 6.96849 20.0557L6.75665 20.0518C4.83005 20.0266 4.37238 19.8729 4.17853 19.3439" fill="#31C1E1"/>
<path d="M10.2363 18.6788C9.57378 18.6788 8.93836 18.4227 8.46986 17.9668C8.00136 17.5109 7.73816 16.8925 7.73816 16.2478C7.73816 15.603 8.00136 14.9847 8.46986 14.5288C8.93836 14.0729 9.57378 13.8167 10.2363 13.8167C10.8989 13.8167 11.5343 14.0729 12.0028 14.5288C12.4713 14.9847 12.7345 15.603 12.7345 16.2478C12.7345 16.8925 12.4713 17.5109 12.0028 17.9668C11.5343 18.4227 10.8989 18.6788 10.2363 18.6788ZM17.7309 18.6788C17.0683 18.6788 16.4329 18.4227 15.9644 17.9668C15.4959 17.5109 15.2327 16.8925 15.2327 16.2478C15.2327 15.603 15.4959 14.9847 15.9644 14.5288C16.4329 14.0729 17.0683 13.8167 17.7309 13.8167C18.3934 13.8167 19.0289 14.0729 19.4974 14.5288C19.9659 14.9847 20.2291 15.603 20.2291 16.2478C20.2291 16.8925 19.9659 17.5109 19.4974 17.9668C19.0289 18.4227 18.3934 18.6788 17.7309 18.6788ZM22.7272 24.5133C22.0647 24.5133 21.4293 24.2572 20.9608 23.8013C20.4923 23.3454 20.2291 22.727 20.2291 22.0823C20.2291 21.4375 20.4923 20.8192 20.9608 20.3633C21.4293 19.9073 22.0647 19.6512 22.7272 19.6512C23.3898 19.6512 24.0252 19.9073 24.4937 20.3633C24.9622 20.8192 25.2254 21.4375 25.2254 22.0823C25.2254 22.727 24.9622 23.3454 24.4937 23.8013C24.0252 24.2572 23.3898 24.5133 22.7272 24.5133ZM19.7294 31.3202C19.0669 31.3202 18.4314 31.0641 17.9629 30.6082C17.4944 30.1522 17.2312 29.5339 17.2312 28.8892C17.2312 28.2444 17.4944 27.6261 17.9629 27.1702C18.4314 26.7142 19.0669 26.4581 19.7294 26.4581C20.392 26.4581 21.0274 26.7142 21.4959 27.1702C21.9644 27.6261 22.2276 28.2444 22.2276 28.8892C22.2276 29.5339 21.9644 30.1522 21.4959 30.6082C21.0274 31.0641 20.392 31.3202 19.7294 31.3202ZM26.9642 6.24164C27.2011 6.11809 27.4613 6.04234 27.729 6.01892C27.9968 5.9955 28.2667 6.02488 28.5225 6.10532C28.7783 6.18576 29.0148 6.31559 29.2178 6.48705C29.4209 6.65851 29.5863 6.86808 29.7042 7.1032L37.8842 23.4397C38.0208 23.7334 38.0373 24.0666 37.9305 24.3717C37.8236 24.6768 37.6013 24.9308 37.3089 25.0822C37.0164 25.2335 36.6757 25.2708 36.3561 25.1864C36.0364 25.1021 35.7617 24.9024 35.5879 24.628L26.1787 8.93328C26.044 8.70737 25.9575 8.45737 25.9242 8.19819C25.891 7.93902 25.9117 7.67599 25.9852 7.42478C26.0587 7.17358 26.1834 6.93935 26.352 6.73608C26.5205 6.5328 26.7294 6.36465 26.9662 6.24164" fill="#31C1E1"/>
<path fill-rule="evenodd" clip-rule="evenodd" d="M23.3025 6.00622C24.2738 7.78573 25.9106 8.28361 27.4934 7.46484C29.0743 6.64801 29.5679 5.04742 28.5946 3.2679C27.4834 1.22972 25.1012 -0.617865 23.5223 0.197018C21.9435 1.0119 22.1873 3.96804 23.3025 6.00622ZM25.0652 5.09215C24.7128 4.40006 24.496 3.6502 24.4256 2.88088C24.3964 2.55913 24.4085 2.23509 24.4616 1.91625L24.4976 1.93375C24.5975 1.98042 24.9073 2.12045 25.303 2.42773C25.9066 2.89644 26.5061 3.58685 26.8299 4.18002C27.2876 5.0163 27.1577 5.43638 26.5541 5.7495C25.9545 6.06067 25.5228 5.92842 25.0652 5.09409" fill="#31C1E1"/>
</svg>
