<svg width="46" height="46" viewBox="0 0 46 46" fill="none" xmlns="http://www.w3.org/2000/svg">
<path d="M6.35651 8.85066L8.72358 6.50208L39.6435 37.422L37.2949 39.7891L30.5081 33.0022C29.3615 34.2412 27.6972 35.2583 25.7739 35.7576V39.7891H20.2261V35.7576C16.4721 34.8145 13.7536 32.0036 13.7536 28.6934H17.4522C17.4522 30.6906 19.9857 32.392 23 32.392C25.0897 32.392 26.9575 31.5783 27.9006 30.3947L22.4082 24.9024C18.5247 23.9223 13.7536 22.6832 13.7536 17.5977C13.7536 17.1724 13.7536 16.7656 13.8831 16.3772L6.35651 8.85066ZM20.2261 10.5335V6.50208H25.7739V10.5335C29.5279 11.4766 32.2464 14.2875 32.2464 17.5977H28.5478C28.5478 15.6005 26.0143 13.8992 23 13.8992C22.3158 13.8992 21.6685 13.9916 21.0583 14.1396L18.1919 11.2732L20.2261 10.5335Z" fill="#31C1E1"/>
</svg>
